<svg width="62" height="62" viewBox="0 0 62 62" fill="none" xmlns="http://www.w3.org/2000/svg">
<g id="Frame 2">
<rect width="62" height="62" rx="27.5556" fill="#304478"/>
<g id="Vector">
<path d="M28.0215 41.3333C27.5298 41.3333 27.0759 41.1715 26.6599 40.8478C26.2439 40.5601 26.0358 40.1285 26.0358 39.553V20.7248C26.0358 20.1133 26.2439 19.6638 26.6599 19.376C27.0759 19.0883 27.5298 18.9444 28.0215 18.9444C28.551 18.9444 29.0048 19.0883 29.383 19.376C29.7991 19.6638 30.0071 20.1133 30.0071 20.7248V26.3355C30.0071 27.1987 30.1773 27.6303 30.5177 27.6303C30.8202 27.6303 31.1606 27.4145 31.5388 26.9829L39.0275 19.6458C39.5191 19.1782 40.0108 18.9444 40.5025 18.9444C41.0698 18.9444 41.5615 19.1243 41.9775 19.4839C42.3936 19.8436 42.6016 20.2932 42.6016 20.8327C42.6016 21.2643 42.4314 21.6419 42.091 21.9656L34.262 29.3027L42.5449 38.1503C42.8852 38.546 43.0554 38.9236 43.0554 39.2833C43.0554 39.8228 42.8285 40.3083 42.3747 40.7399C41.9586 41.1355 41.4859 41.3333 40.9564 41.3333C40.389 41.3333 39.8974 41.0996 39.4813 40.632L31.5388 31.8383L30.7446 32.5936C30.2529 33.0611 30.0071 33.6186 30.0071 34.266V39.553C30.0071 40.1285 29.7991 40.5601 29.383 40.8478C29.0048 41.1715 28.551 41.3333 28.0215 41.3333Z" fill="white"/>
<path d="M19.5684 40.8478C19.9844 41.1715 20.4383 41.3333 20.93 41.3333C21.4595 41.3333 21.9133 41.1715 22.2915 40.8478C22.7076 40.5601 22.9156 40.1285 22.9156 39.553V20.7248C22.9156 20.1133 22.7076 19.6638 22.2915 19.376C21.9133 19.0883 21.4595 18.9444 20.93 18.9444C20.4383 18.9444 19.9844 19.0883 19.5684 19.376C19.1524 19.6638 18.9443 20.1133 18.9443 20.7248V39.553C18.9443 40.1285 19.1524 40.5601 19.5684 40.8478Z" fill="white"/>
</g>
</g>
</svg>
